<svg xmlns="http://www.w3.org/2000/svg" viewBox="0 0 880 440" fill="#ffffff"><circle cx="285" cy="25" r="2.5"/><circle cx="275" cy="35" r="2.5"/><circle cx="285" cy="35" r="2.5"/><circle cx="295" cy="35" r="2.5"/><circle cx="265" cy="45" r="2.5"/><circle cx="275" cy="45" r="2.5"/><circle cx="285" cy="45" r="2.5"/><circle cx="295" cy="45" r="2.5"/><circle cx="305" cy="45" r="2.5"/><circle cx="565" cy="45" r="2.5"/><circle cx="605" cy="45" r="2.5"/><circle cx="155" cy="55" r="2.5"/><circle cx="265" cy="55" r="2.5"/><circle cx="275" cy="55" r="2.5"/><circle cx="285" cy="55" r="2.5"/><circle cx="295" cy="55" r="2.5"/><circle cx="305" cy="55" r="2.5"/><circle cx="435" cy="55" r="2.5"/><circle cx="525" cy="55" r="2.5"/><circle cx="535" cy="55" r="2.5"/><circle cx="545" cy="55" r="2.5"/><circle cx="555" cy="55" r="2.5"/><circle cx="565" cy="55" r="2.5"/><circle cx="575" cy="55" r="2.5"/><circle cx="585" cy="55" r="2.5"/><circle cx="595" cy="55" r="2.5"/><circle cx="605" cy="55" r="2.5"/><circle cx="615" cy="55" r="2.5"/><circle cx="625" cy="55" r="2.5"/><circle cx="635" cy="55" r="2.5"/><circle cx="645" cy="55" r="2.5"/><circle cx="655" cy="55" r="2.5"/><circle cx="665" cy="55" r="2.5"/><circle cx="675" cy="55" r="2.5"/><circle cx="115" cy="65" r="2.5"/><circle cx="125" cy="65" r="2.5"/><circle cx="135" cy="65" r="2.5"/><circle cx="145" cy="65" r="2.5"/><circle cx="155" cy="65" r="2.5"/><circle cx="165" cy="65" r="2.5"/><circle cx="175" cy="65" r="2.5"/><circle cx="185" cy="65" r="2.5"/><circle cx="195" cy="65" r="2.5"/><circle cx="255" cy="65" r="2.5"/><circle cx="265" cy="65" r="2.5"/><circle cx="275" cy="65" r="2.5"/><circle cx="285" cy="65" r="2.5"/><circle cx="295" cy="65" r="2.5"/><circle cx="305" cy="65" r="2.5"/><circle cx="315" cy="65" r="2.5"/><circle cx="435" cy="65" r="2.5"/><circle cx="475" cy="65" r="2.5"/><circle cx="495" cy="65" r="2.5"/><circle cx="505" cy="65" r="2.5"/><circle cx="515" cy="65" r="2.5"/><circle cx="525" cy="65" r="2.5"/><circle cx="535" cy="65" r="2.5"/><circle cx="545" cy="65" r="2.5"/><circle cx="555" cy="65" r="2.5"/><circle cx="565" cy="65" r="2.5"/><circle cx="575" cy="65" r="2.5"/><circle cx="585" cy="65" r="2.5"/><circle cx="595" cy="65" r="2.5"/><circle cx="605" cy="65" r="2.5"/><circle cx="615" cy="65" r="2.5"/><circle cx="625" cy="65" r="2.5"/><circle cx="635" cy="65" r="2.5"/><circle cx="645" cy="65" r="2.5"/><circle cx="655" cy="65" r="2.5"/><circle cx="665" cy="65" r="2.5"/><circle cx="675" cy="65" r="2.5"/><circle cx="685" cy="65" r="2.5"/><circle cx="695" cy="65" r="2.5"/><circle cx="735" cy="65" r="2.5"/><circle cx="85" cy="75" r="2.5"/><circle cx="105" cy="75" r="2.5"/><circle cx="115" cy="75" r="2.5"/><circle cx="125" cy="75" r="2.5"/><circle cx="135" cy="75" r="2.5"/><circle cx="145" cy="75" r="2.5"/><circle cx="155" cy="75" r="2.5"/><circle cx="165" cy="75" r="2.5"/><circle cx="175" cy="75" r="2.5"/><circle cx="185" cy="75" r="2.5"/><circle cx="195" cy="75" r="2.5"/><circle cx="205" cy="75" r="2.5"/><circle cx="215" cy="75" r="2.5"/><circle cx="265" cy="75" r="2.5"/><circle cx="275" cy="75" r="2.5"/><circle cx="285" cy="75" r="2.5"/><circle cx="295" cy="75" r="2.5"/><circle cx="305" cy="75" r="2.5"/><circle cx="425" cy="75" r="2.5"/><circle cx="435" cy="75" r="2.5"/><circle cx="445" cy="75" r="2.5"/><circle cx="455" cy="75" r="2.5"/><circle cx="465" cy="75" r="2.5"/><circle cx="475" cy="75" r="2.5"/><circle cx="485" cy="75" r="2.5"/><circle cx="495" cy="75" r="2.5"/><circle cx="505" cy="75" r="2.5"/><circle cx="515" cy="75" r="2.5"/><circle cx="525" cy="75" r="2.5"/><circle cx="535" cy="75" r="2.5"/><circle cx="545" cy="75" r="2.5"/><circle cx="555" cy="75" r="2.5"/><circle cx="565" cy="75" r="2.5"/><circle cx="575" cy="75" r="2.5"/><circle cx="585" cy="75" r="2.5"/><circle cx="595" cy="75" r="2.5"/><circle cx="605" cy="75" r="2.5"/><circle cx="615" cy="75" r="2.5"/><circle cx="625" cy="75" r="2.5"/><circle cx="635" cy="75" r="2.5"/><circle cx="645" cy="75" r="2.5"/><circle cx="655" cy="75" r="2.5"/><circle cx="665" cy="75" r="2.5"/><circle cx="675" cy="75" r="2.5"/><circle cx="685" cy="75" r="2.5"/><circle cx="695" cy="75" r="2.5"/><circle cx="705" cy="75" r="2.5"/><circle cx="715" cy="75" r="2.5"/><circle cx="725" cy="75" r="2.5"/><circle cx="735" cy="75" r="2.5"/><circle cx="745" cy="75" r="2.5"/><circle cx="755" cy="75" r="2.5"/><circle cx="65" cy="85" r="2.5"/><circle cx="75" cy="85" r="2.5"/><circle cx="85" cy="85" r="2.5"/><circle cx="95" cy="85" r="2.5"/><circle cx="105" cy="85" r="2.5"/><circle cx="115" cy="85" r="2.5"/><circle cx="125" cy="85" r="2.5"/><circle cx="135" cy="85" r="2.5"/><circle cx="145" cy="85" r="2.5"/><circle cx="155" cy="85" r="2.5"/><circle cx="165" cy="85" r="2.5"/><circle cx="175" cy="85" r="2.5"/><circle cx="185" cy="85" r="2.5"/><circle cx="195" cy="85" r="2.5"/><circle cx="205" cy="85" r="2.5"/><circle cx="215" cy="85" r="2.5"/><circle cx="225" cy="85" r="2.5"/><circle cx="265" cy="85" r="2.5"/><circle cx="275" cy="85" r="2.5"/><circle cx="285" cy="85" r="2.5"/><circle cx="295" cy="85" r="2.5"/><circle cx="305" cy="85" r="2.5"/><circle cx="435" cy="85" r="2.5"/><circle cx="445" cy="85" r="2.5"/><circle cx="455" cy="85" r="2.5"/><circle cx="465" cy="85" r="2.5"/><circle cx="475" cy="85" r="2.5"/><circle cx="485" cy="85" r="2.5"/><circle cx="495" cy="85" r="2.5"/><circle cx="505" cy="85" r="2.5"/><circle cx="515" cy="85" r="2.5"/><circle cx="525" cy="85" r="2.5"/><circle cx="535" cy="85" r="2.5"/><circle cx="545" cy="85" r="2.5"/><circle cx="555" cy="85" r="2.5"/><circle cx="565" cy="85" r="2.5"/><circle cx="575" cy="85" r="2.5"/><circle cx="585" cy="85" r="2.5"/><circle cx="595" cy="85" r="2.5"/><circle cx="605" cy="85" r="2.5"/><circle cx="615" cy="85" r="2.5"/><circle cx="625" cy="85" r="2.5"/><circle cx="635" cy="85" r="2.5"/><circle cx="645" cy="85" r="2.5"/><circle cx="655" cy="85" r="2.5"/><circle cx="665" cy="85" r="2.5"/><circle cx="675" cy="85" r="2.5"/><circle cx="685" cy="85" r="2.5"/><circle cx="695" cy="85" r="2.5"/><circle cx="705" cy="85" r="2.5"/><circle cx="715" cy="85" r="2.5"/><circle cx="725" cy="85" r="2.5"/><circle cx="735" cy="85" r="2.5"/><circle cx="745" cy="85" r="2.5"/><circle cx="755" cy="85" r="2.5"/><circle cx="765" cy="85" r="2.5"/><circle cx="65" cy="95" r="2.5"/><circle cx="75" cy="95" r="2.5"/><circle cx="85" cy="95" r="2.5"/><circle cx="95" cy="95" r="2.5"/><circle cx="105" cy="95" r="2.5"/><circle cx="115" cy="95" r="2.5"/><circle cx="125" cy="95" r="2.5"/><circle cx="135" cy="95" r="2.5"/><circle cx="145" cy="95" r="2.5"/><circle cx="155" cy="95" r="2.5"/><circle cx="165" cy="95" r="2.5"/><circle cx="175" cy="95" r="2.5"/><circle cx="185" cy="95" r="2.5"/><circle cx="195" cy="95" r="2.5"/><circle cx="205" cy="95" r="2.5"/><circle cx="215" cy="95" r="2.5"/><circle cx="225" cy="95" r="2.5"/><circle cx="235" cy="95" r="2.5"/><circle cx="275" cy="95" r="2.5"/><circle cx="285" cy="95" r="2.5"/><circle cx="295" cy="95" r="2.5"/><circle cx="425" cy="95" r="2.5"/><circle cx="435" cy="95" r="2.5"/><circle cx="445" cy="95" r="2.5"/><circle cx="455" cy="95" r="2.5"/><circle cx="465" cy="95" r="2.5"/><circle cx="475" cy="95" r="2.5"/><circle cx="485" cy="95" r="2.5"/><circle cx="495" cy="95" r="2.5"/><circle cx="505" cy="95" r="2.5"/><circle cx="515" cy="95" r="2.5"/><circle cx="525" cy="95" r="2.5"/><circle cx="535" cy="95" r="2.5"/><circle cx="545" cy="95" r="2.5"/><circle cx="555" cy="95" r="2.5"/><circle cx="565" cy="95" r="2.5"/><circle cx="575" cy="95" r="2.5"/><circle cx="585" cy="95" r="2.5"/><circle cx="595" cy="95" r="2.5"/><circle cx="605" cy="95" r="2.5"/><circle cx="615" cy="95" r="2.5"/><circle cx="625" cy="95" r="2.5"/><circle cx="635" cy="95" r="2.5"/><circle cx="645" cy="95" r="2.5"/><circle cx="655" cy="95" r="2.5"/><circle cx="665" cy="95" r="2.5"/><circle cx="675" cy="95" r="2.5"/><circle cx="685" cy="95" r="2.5"/><circle cx="695" cy="95" r="2.5"/><circle cx="705" cy="95" r="2.5"/><circle cx="715" cy="95" r="2.5"/><circle cx="725" cy="95" r="2.5"/><circle cx="735" cy="95" r="2.5"/><circle cx="745" cy="95" r="2.5"/><circle cx="755" cy="95" r="2.5"/><circle cx="765" cy="95" r="2.5"/><circle cx="775" cy="95" r="2.5"/><circle cx="55" cy="105" r="2.5"/><circle cx="65" cy="105" r="2.5"/><circle cx="75" cy="105" r="2.5"/><circle cx="85" cy="105" r="2.5"/><circle cx="95" cy="105" r="2.5"/><circle cx="105" cy="105" r="2.5"/><circle cx="115" cy="105" r="2.5"/><circle cx="125" cy="105" r="2.5"/><circle cx="135" cy="105" r="2.5"/><circle cx="145" cy="105" r="2.5"/><circle cx="155" cy="105" r="2.5"/><circle cx="165" cy="105" r="2.5"/><circle cx="175" cy="105" r="2.5"/><circle cx="185" cy="105" r="2.5"/><circle cx="195" cy="105" r="2.5"/><circle cx="205" cy="105" r="2.5"/><circle cx="215" cy="105" r="2.5"/><circle cx="225" cy="105" r="2.5"/><circle cx="235" cy="105" r="2.5"/><circle cx="245" cy="105" r="2.5"/><circle cx="285" cy="105" r="2.5"/><circle cx="415" cy="105" r="2.5"/><circle cx="425" cy="105" r="2.5"/><circle cx="435" cy="105" r="2.5"/><circle cx="445" cy="105" r="2.5"/><circle cx="455" cy="105" r="2.5"/><circle cx="465" cy="105" r="2.5"/><circle cx="475" cy="105" r="2.5"/><circle cx="485" cy="105" r="2.5"/><circle cx="495" cy="105" r="2.5"/><circle cx="505" cy="105" r="2.5"/><circle cx="515" cy="105" r="2.5"/><circle cx="525" cy="105" r="2.5"/><circle cx="535" cy="105" r="2.5"/><circle cx="545" cy="105" r="2.5"/><circle cx="555" cy="105" r="2.5"/><circle cx="565" cy="105" r="2.5"/><circle cx="575" cy="105" r="2.5"/><circle cx="585" cy="105" r="2.5"/><circle cx="595" cy="105" r="2.5"/><circle cx="605" cy="105" r="2.5"/><circle cx="615" cy="105" r="2.5"/><circle cx="625" cy="105" r="2.5"/><circle cx="635" cy="105" r="2.5"/><circle cx="645" cy="105" r="2.5"/><circle cx="655" cy="105" r="2.5"/><circle cx="665" cy="105" r="2.5"/><circle cx="675" cy="105" r="2.5"/><circle cx="685" cy="105" r="2.5"/><circle cx="695" cy="105" r="2.5"/><circle cx="705" cy="105" r="2.5"/><circle cx="715" cy="105" r="2.5"/><circle cx="725" cy="105" r="2.5"/><circle cx="735" cy="105" r="2.5"/><circle cx="745" cy="105" r="2.5"/><circle cx="755" cy="105" r="2.5"/><circle cx="765" cy="105" r="2.5"/><circle cx="65" cy="115" r="2.5"/><circle cx="75" cy="115" r="2.5"/><circle cx="85" cy="115" r="2.5"/><circle cx="95" cy="115" r="2.5"/><circle cx="105" cy="115" r="2.5"/><circle cx="115" cy="115" r="2.5"/><circle cx="125" cy="115" r="2.5"/><circle cx="135" cy="115" r="2.5"/><circle cx="145" cy="115" r="2.5"/><circle cx="155" cy="115" r="2.5"/><circle cx="165" cy="115" r="2.5"/><circle cx="175" cy="115" r="2.5"/><circle cx="185" cy="115" r="2.5"/><circle cx="195" cy="115" r="2.5"/><circle cx="205" cy="115" r="2.5"/><circle cx="215" cy="115" r="2.5"/><circle cx="225" cy="115" r="2.5"/><circle cx="235" cy="115" r="2.5"/><circle cx="245" cy="115" r="2.5"/><circle cx="425" cy="115" r="2.5"/><circle cx="435" cy="115" r="2.5"/><circle cx="445" cy="115" r="2.5"/><circle cx="455" cy="115" r="2.5"/><circle cx="465" cy="115" r="2.5"/><circle cx="475" cy="115" r="2.5"/><circle cx="485" cy="115" r="2.5"/><circle cx="495" cy="115" r="2.5"/><circle cx="505" cy="115" r="2.5"/><circle cx="515" cy="115" r="2.5"/><circle cx="525" cy="115" r="2.5"/><circle cx="535" cy="115" r="2.5"/><circle cx="545" cy="115" r="2.5"/><circle cx="555" cy="115" r="2.5"/><circle cx="565" cy="115" r="2.5"/><circle cx="575" cy="115" r="2.5"/><circle cx="585" cy="115" r="2.5"/><circle cx="595" cy="115" r="2.5"/><circle cx="605" cy="115" r="2.5"/><circle cx="615" cy="115" r="2.5"/><circle cx="625" cy="115" r="2.5"/><circle cx="635" cy="115" r="2.5"/><circle cx="645" cy="115" r="2.5"/><circle cx="655" cy="115" r="2.5"/><circle cx="665" cy="115" r="2.5"/><circle cx="675" cy="115" r="2.5"/><circle cx="685" cy="115" r="2.5"/><circle cx="695" cy="115" r="2.5"/><circle cx="705" cy="115" r="2.5"/><circle cx="715" cy="115" r="2.5"/><circle cx="725" cy="115" r="2.5"/><circle cx="735" cy="115" r="2.5"/><circle cx="745" cy="115" r="2.5"/><circle cx="755" cy="115" r="2.5"/><circle cx="765" cy="115" r="2.5"/><circle cx="65" cy="125" r="2.5"/><circle cx="75" cy="125" r="2.5"/><circle cx="85" cy="125" r="2.5"/><circle cx="95" cy="125" r="2.5"/><circle cx="105" cy="125" r="2.5"/><circle cx="115" cy="125" r="2.5"/><circle cx="125" cy="125" r="2.5"/><circle cx="135" cy="125" r="2.5"/><circle cx="145" cy="125" r="2.5"/><circle cx="155" cy="125" r="2.5"/><circle cx="165" cy="125" r="2.5"/><circle cx="175" cy="125" r="2.5"/><circle cx="185" cy="125" r="2.5"/><circle cx="195" cy="125" r="2.5"/><circle cx="205" cy="125" r="2.5"/><circle cx="215" cy="125" r="2.5"/><circle cx="225" cy="125" r="2.5"/><circle cx="235" cy="125" r="2.5"/><circle cx="245" cy="125" r="2.5"/><circle cx="435" cy="125" r="2.5"/><circle cx="445" cy="125" r="2.5"/><circle cx="455" cy="125" r="2.5"/><circle cx="465" cy="125" r="2.5"/><circle cx="475" cy="125" r="2.5"/><circle cx="485" cy="125" r="2.5"/><circle cx="495" cy="125" r="2.5"/><circle cx="505" cy="125" r="2.5"/><circle cx="515" cy="125" r="2.5"/><circle cx="525" cy="125" r="2.5"/><circle cx="535" cy="125" r="2.5"/><circle cx="545" cy="125" r="2.5"/><circle cx="555" cy="125" r="2.5"/><circle cx="565" cy="125" r="2.5"/><circle cx="575" cy="125" r="2.5"/><circle cx="585" cy="125" r="2.5"/><circle cx="595" cy="125" r="2.5"/><circle cx="605" cy="125" r="2.5"/><circle cx="615" cy="125" r="2.5"/><circle cx="625" cy="125" r="2.5"/><circle cx="635" cy="125" r="2.5"/><circle cx="645" cy="125" r="2.5"/><circle cx="655" cy="125" r="2.5"/><circle cx="665" cy="125" r="2.5"/><circle cx="675" cy="125" r="2.5"/><circle cx="685" cy="125" r="2.5"/><circle cx="695" cy="125" r="2.5"/><circle cx="705" cy="125" r="2.5"/><circle cx="715" cy="125" r="2.5"/><circle cx="725" cy="125" r="2.5"/><circle cx="735" cy="125" r="2.5"/><circle cx="745" cy="125" r="2.5"/><circle cx="755" cy="125" r="2.5"/><circle cx="765" cy="125" r="2.5"/><circle cx="775" cy="125" r="2.5"/><circle cx="65" cy="135" r="2.5"/><circle cx="75" cy="135" r="2.5"/><circle cx="85" cy="135" r="2.5"/><circle cx="95" cy="135" r="2.5"/><circle cx="105" cy="135" r="2.5"/><circle cx="115" cy="135" r="2.5"/><circle cx="125" cy="135" r="2.5"/><circle cx="135" cy="135" r="2.5"/><circle cx="145" cy="135" r="2.5"/><circle cx="155" cy="135" r="2.5"/><circle cx="165" cy="135" r="2.5"/><circle cx="175" cy="135" r="2.5"/><circle cx="185" cy="135" r="2.5"/><circle cx="195" cy="135" r="2.5"/><circle cx="205" cy="135" r="2.5"/><circle cx="215" cy="135" r="2.5"/><circle cx="225" cy="135" r="2.5"/><circle cx="235" cy="135" r="2.5"/><circle cx="245" cy="135" r="2.5"/><circle cx="255" cy="135" r="2.5"/><circle cx="455" cy="135" r="2.5"/><circle cx="475" cy="135" r="2.5"/><circle cx="485" cy="135" r="2.5"/><circle cx="495" cy="135" r="2.5"/><circle cx="505" cy="135" r="2.5"/><circle cx="515" cy="135" r="2.5"/><circle cx="525" cy="135" r="2.5"/><circle cx="535" cy="135" r="2.5"/><circle cx="545" cy="135" r="2.5"/><circle cx="555" cy="135" r="2.5"/><circle cx="565" cy="135" r="2.5"/><circle cx="575" cy="135" r="2.5"/><circle cx="585" cy="135" r="2.5"/><circle cx="595" cy="135" r="2.5"/><circle cx="605" cy="135" r="2.5"/><circle cx="615" cy="135" r="2.5"/><circle cx="625" cy="135" r="2.5"/><circle cx="635" cy="135" r="2.5"/><circle cx="645" cy="135" r="2.5"/><circle cx="655" cy="135" r="2.5"/><circle cx="665" cy="135" r="2.5"/><circle cx="675" cy="135" r="2.5"/><circle cx="685" cy="135" r="2.5"/><circle cx="695" cy="135" r="2.5"/><circle cx="705" cy="135" r="2.5"/><circle cx="715" cy="135" r="2.5"/><circle cx="725" cy="135" r="2.5"/><circle cx="735" cy="135" r="2.5"/><circle cx="745" cy="135" r="2.5"/><circle cx="755" cy="135" r="2.5"/><circle cx="765" cy="135" r="2.5"/><circle cx="75" cy="145" r="2.5"/><circle cx="85" cy="145" r="2.5"/><circle cx="95" cy="145" r="2.5"/><circle cx="105" cy="145" r="2.5"/><circle cx="115" cy="145" r="2.5"/><circle cx="125" cy="145" r="2.5"/><circle cx="135" cy="145" r="2.5"/><circle cx="145" cy="145" r="2.5"/><circle cx="155" cy="145" r="2.5"/><circle cx="165" cy="145" r="2.5"/><circle cx="175" cy="145" r="2.5"/><circle cx="185" cy="145" r="2.5"/><circle cx="195" cy="145" r="2.5"/><circle cx="205" cy="145" r="2.5"/><circle cx="215" cy="145" r="2.5"/><circle cx="225" cy="145" r="2.5"/><circle cx="235" cy="145" r="2.5"/><circle cx="245" cy="145" r="2.5"/><circle cx="485" cy="145" r="2.5"/><circle cx="495" cy="145" r="2.5"/><circle cx="505" cy="145" r="2.5"/><circle cx="515" cy="145" r="2.5"/><circle cx="525" cy="145" r="2.5"/><circle cx="535" cy="145" r="2.5"/><circle cx="545" cy="145" r="2.5"/><circle cx="555" cy="145" r="2.5"/><circle cx="565" cy="145" r="2.5"/><circle cx="575" cy="145" r="2.5"/><circle cx="585" cy="145" r="2.5"/><circle cx="595" cy="145" r="2.5"/><circle cx="605" cy="145" r="2.5"/><circle cx="615" cy="145" r="2.5"/><circle cx="625" cy="145" r="2.5"/><circle cx="635" cy="145" r="2.5"/><circle cx="645" cy="145" r="2.5"/><circle cx="655" cy="145" r="2.5"/><circle cx="665" cy="145" r="2.5"/><circle cx="675" cy="145" r="2.5"/><circle cx="685" cy="145" r="2.5"/><circle cx="695" cy="145" r="2.5"/><circle cx="705" cy="145" r="2.5"/><circle cx="715" cy="145" r="2.5"/><circle cx="725" cy="145" r="2.5"/><circle cx="735" cy="145" r="2.5"/><circle cx="745" cy="145" r="2.5"/><circle cx="755" cy="145" r="2.5"/><circle cx="765" cy="145" r="2.5"/><circle cx="75" cy="155" r="2.5"/><circle cx="85" cy="155" r="2.5"/><circle cx="95" cy="155" r="2.5"/><circle cx="105" cy="155" r="2.5"/><circle cx="115" cy="155" r="2.5"/><circle cx="125" cy="155" r="2.5"/><circle cx="135" cy="155" r="2.5"/><circle cx="145" cy="155" r="2.5"/><circle cx="155" cy="155" r="2.5"/><circle cx="165" cy="155" r="2.5"/><circle cx="175" cy="155" r="2.5"/><circle cx="185" cy="155" r="2.5"/><circle cx="195" cy="155" r="2.5"/><circle cx="205" cy="155" r="2.5"/><circle cx="215" cy="155" r="2.5"/><circle cx="225" cy="155" r="2.5"/><circle cx="235" cy="155" r="2.5"/><circle cx="245" cy="155" r="2.5"/><circle cx="475" cy="155" r="2.5"/><circle cx="485" cy="155" r="2.5"/><circle cx="495" cy="155" r="2.5"/><circle cx="505" cy="155" r="2.5"/><circle cx="515" cy="155" r="2.5"/><circle cx="525" cy="155" r="2.5"/><circle cx="535" cy="155" r="2.5"/><circle cx="545" cy="155" r="2.5"/><circle cx="555" cy="155" r="2.5"/><circle cx="565" cy="155" r="2.5"/><circle cx="575" cy="155" r="2.5"/><circle cx="585" cy="155" r="2.5"/><circle cx="595" cy="155" r="2.5"/><circle cx="605" cy="155" r="2.5"/><circle cx="615" cy="155" r="2.5"/><circle cx="625" cy="155" r="2.5"/><circle cx="635" cy="155" r="2.5"/><circle cx="645" cy="155" r="2.5"/><circle cx="655" cy="155" r="2.5"/><circle cx="665" cy="155" r="2.5"/><circle cx="675" cy="155" r="2.5"/><circle cx="685" cy="155" r="2.5"/><circle cx="695" cy="155" r="2.5"/><circle cx="705" cy="155" r="2.5"/><circle cx="715" cy="155" r="2.5"/><circle cx="725" cy="155" r="2.5"/><circle cx="735" cy="155" r="2.5"/><circle cx="745" cy="155" r="2.5"/><circle cx="755" cy="155" r="2.5"/><circle cx="765" cy="155" r="2.5"/><circle cx="75" cy="165" r="2.5"/><circle cx="85" cy="165" r="2.5"/><circle cx="95" cy="165" r="2.5"/><circle cx="105" cy="165" r="2.5"/><circle cx="115" cy="165" r="2.5"/><circle cx="125" cy="165" r="2.5"/><circle cx="135" cy="165" r="2.5"/><circle cx="145" cy="165" r="2.5"/><circle cx="155" cy="165" r="2.5"/><circle cx="165" cy="165" r="2.5"/><circle cx="175" cy="165" r="2.5"/><circle cx="185" cy="165" r="2.5"/><circle cx="195" cy="165" r="2.5"/><circle cx="205" cy="165" r="2.5"/><circle cx="215" cy="165" r="2.5"/><circle cx="225" cy="165" r="2.5"/><circle cx="235" cy="165" r="2.5"/><circle cx="245" cy="165" r="2.5"/><circle cx="445" cy="165" r="2.5"/><circle cx="455" cy="165" r="2.5"/><circle cx="465" cy="165" r="2.5"/><circle cx="475" cy="165" r="2.5"/><circle cx="485" cy="165" r="2.5"/><circle cx="495" cy="165" r="2.5"/><circle cx="505" cy="165" r="2.5"/><circle cx="515" cy="165" r="2.5"/><circle cx="525" cy="165" r="2.5"/><circle cx="535" cy="165" r="2.5"/><circle cx="545" cy="165" r="2.5"/><circle cx="555" cy="165" r="2.5"/><circle cx="565" cy="165" r="2.5"/><circle cx="575" cy="165" r="2.5"/><circle cx="585" cy="165" r="2.5"/><circle cx="595" cy="165" r="2.5"/><circle cx="605" cy="165" r="2.5"/><circle cx="615" cy="165" r="2.5"/><circle cx="625" cy="165" r="2.5"/><circle cx="635" cy="165" r="2.5"/><circle cx="645" cy="165" r="2.5"/><circle cx="655" cy="165" r="2.5"/><circle cx="665" cy="165" r="2.5"/><circle cx="675" cy="165" r="2.5"/><circle cx="685" cy="165" r="2.5"/><circle cx="695" cy="165" r="2.5"/><circle cx="705" cy="165" r="2.5"/><circle cx="715" cy="165" r="2.5"/><circle cx="725" cy="165" r="2.5"/><circle cx="735" cy="165" r="2.5"/><circle cx="745" cy="165" r="2.5"/><circle cx="755" cy="165" r="2.5"/><circle cx="85" cy="175" r="2.5"/><circle cx="95" cy="175" r="2.5"/><circle cx="105" cy="175" r="2.5"/><circle cx="115" cy="175" r="2.5"/><circle cx="125" cy="175" r="2.5"/><circle cx="135" cy="175" r="2.5"/><circle cx="145" cy="175" r="2.5"/><circle cx="155" cy="175" r="2.5"/><circle cx="165" cy="175" r="2.5"/><circle cx="175" cy="175" r="2.5"/><circle cx="185" cy="175" r="2.5"/><circle cx="195" cy="175" r="2.5"/><circle cx="215" cy="175" r="2.5"/><circle cx="225" cy="175" r="2.5"/><circle cx="235" cy="175" r="2.5"/><circle cx="435" cy="175" r="2.5"/><circle cx="445" cy="175" r="2.5"/><circle cx="455" cy="175" r="2.5"/><circle cx="465" cy="175" r="2.5"/><circle cx="475" cy="175" r="2.5"/><circle cx="485" cy="175" r="2.5"/><circle cx="495" cy="175" r="2.5"/><circle cx="505" cy="175" r="2.5"/><circle cx="515" cy="175" r="2.5"/><circle cx="525" cy="175" r="2.5"/><circle cx="535" cy="175" r="2.5"/><circle cx="545" cy="175" r="2.5"/><circle cx="555" cy="175" r="2.5"/><circle cx="565" cy="175" r="2.5"/><circle cx="575" cy="175" r="2.5"/><circle cx="585" cy="175" r="2.5"/><circle cx="595" cy="175" r="2.5"/><circle cx="605" cy="175" r="2.5"/><circle cx="615" cy="175" r="2.5"/><circle cx="625" cy="175" r="2.5"/><circle cx="635" cy="175" r="2.5"/><circle cx="645" cy="175" r="2.5"/><circle cx="655" cy="175" r="2.5"/><circle cx="665" cy="175" r="2.5"/><circle cx="675" cy="175" r="2.5"/><circle cx="685" cy="175" r="2.5"/><circle cx="695" cy="175" r="2.5"/><circle cx="705" cy="175" r="2.5"/><circle cx="715" cy="175" r="2.5"/><circle cx="725" cy="175" r="2.5"/><circle cx="735" cy="175" r="2.5"/><circle cx="745" cy="175" r="2.5"/><circle cx="755" cy="175" r="2.5"/><circle cx="85" cy="185" r="2.5"/><circle cx="95" cy="185" r="2.5"/><circle cx="105" cy="185" r="2.5"/><circle cx="115" cy="185" r="2.5"/><circle cx="125" cy="185" r="2.5"/><circle cx="135" cy="185" r="2.5"/><circle cx="145" cy="185" r="2.5"/><circle cx="155" cy="185" r="2.5"/><circle cx="165" cy="185" r="2.5"/><circle cx="175" cy="185" r="2.5"/><circle cx="185" cy="185" r="2.5"/><circle cx="195" cy="185" r="2.5"/><circle cx="205" cy="185" r="2.5"/><circle cx="215" cy="185" r="2.5"/><circle cx="225" cy="185" r="2.5"/><circle cx="425" cy="185" r="2.5"/><circle cx="435" cy="185" r="2.5"/><circle cx="445" cy="185" r="2.5"/><circle cx="455" cy="185" r="2.5"/><circle cx="465" cy="185" r="2.5"/><circle cx="475" cy="185" r="2.5"/><circle cx="485" cy="185" r="2.5"/><circle cx="495" cy="185" r="2.5"/><circle cx="505" cy="185" r="2.5"/><circle cx="515" cy="185" r="2.5"/><circle cx="525" cy="185" r="2.5"/><circle cx="555" cy="185" r="2.5"/><circle cx="565" cy="185" r="2.5"/><circle cx="575" cy="185" r="2.5"/><circle cx="585" cy="185" r="2.5"/><circle cx="595" cy="185" r="2.5"/><circle cx="605" cy="185" r="2.5"/><circle cx="615" cy="185" r="2.5"/><circle cx="625" cy="185" r="2.5"/><circle cx="635" cy="185" r="2.5"/><circle cx="645" cy="185" r="2.5"/><circle cx="655" cy="185" r="2.5"/><circle cx="665" cy="185" r="2.5"/><circle cx="675" cy="185" r="2.5"/><circle cx="685" cy="185" r="2.5"/><circle cx="695" cy="185" r="2.5"/><circle cx="705" cy="185" r="2.5"/><circle cx="715" cy="185" r="2.5"/><circle cx="725" cy="185" r="2.5"/><circle cx="735" cy="185" r="2.5"/><circle cx="745" cy="185" r="2.5"/><circle cx="85" cy="195" r="2.5"/><circle cx="95" cy="195" r="2.5"/><circle cx="105" cy="195" r="2.5"/><circle cx="115" cy="195" r="2.5"/><circle cx="125" cy="195" r="2.5"/><circle cx="135" cy="195" r="2.5"/><circle cx="145" cy="195" r="2.5"/><circle cx="155" cy="195" r="2.5"/><circle cx="165" cy="195" r="2.5"/><circle cx="175" cy="195" r="2.5"/><circle cx="185" cy="195" r="2.5"/><circle cx="195" cy="195" r="2.5"/><circle cx="205" cy="195" r="2.5"/><circle cx="215" cy="195" r="2.5"/><circle cx="225" cy="195" r="2.5"/><circle cx="235" cy="195" r="2.5"/><circle cx="265" cy="195" r="2.5"/><circle cx="415" cy="195" r="2.5"/><circle cx="425" cy="195" r="2.5"/><circle cx="435" cy="195" r="2.5"/><circle cx="445" cy="195" r="2.5"/><circle cx="455" cy="195" r="2.5"/><circle cx="465" cy="195" r="2.5"/><circle cx="475" cy="195" r="2.5"/><circle cx="485" cy="195" r="2.5"/><circle cx="495" cy="195" r="2.5"/><circle cx="505" cy="195" r="2.5"/><circle cx="515" cy="195" r="2.5"/><circle cx="525" cy="195" r="2.5"/><circle cx="535" cy="195" r="2.5"/><circle cx="545" cy="195" r="2.5"/><circle cx="555" cy="195" r="2.5"/><circle cx="565" cy="195" r="2.5"/><circle cx="575" cy="195" r="2.5"/><circle cx="585" cy="195" r="2.5"/><circle cx="595" cy="195" r="2.5"/><circle cx="605" cy="195" r="2.5"/><circle cx="615" cy="195" r="2.5"/><circle cx="625" cy="195" r="2.5"/><circle cx="635" cy="195" r="2.5"/><circle cx="645" cy="195" r="2.5"/><circle cx="655" cy="195" r="2.5"/><circle cx="665" cy="195" r="2.5"/><circle cx="675" cy="195" r="2.5"/><circle cx="685" cy="195" r="2.5"/><circle cx="695" cy="195" r="2.5"/><circle cx="705" cy="195" r="2.5"/><circle cx="715" cy="195" r="2.5"/><circle cx="725" cy="195" r="2.5"/><circle cx="735" cy="195" r="2.5"/><circle cx="95" cy="205" r="2.5"/><circle cx="105" cy="205" r="2.5"/><circle cx="115" cy="205" r="2.5"/><circle cx="125" cy="205" r="2.5"/><circle cx="135" cy="205" r="2.5"/><circle cx="145" cy="205" r="2.5"/><circle cx="155" cy="205" r="2.5"/><circle cx="185" cy="205" r="2.5"/><circle cx="195" cy="205" r="2.5"/><circle cx="205" cy="205" r="2.5"/><circle cx="215" cy="205" r="2.5"/><circle cx="225" cy="205" r="2.5"/><circle cx="235" cy="205" r="2.5"/><circle cx="255" cy="205" r="2.5"/><circle cx="265" cy="205" r="2.5"/><circle cx="275" cy="205" r="2.5"/><circle cx="415" cy="205" r="2.5"/><circle cx="425" cy="205" r="2.5"/><circle cx="435" cy="205" r="2.5"/><circle cx="445" cy="205" r="2.5"/><circle cx="455" cy="205" r="2.5"/><circle cx="465" cy="205" r="2.5"/><circle cx="475" cy="205" r="2.5"/><circle cx="485" cy="205" r="2.5"/><circle cx="495" cy="205" r="2.5"/><circle cx="505" cy="205" r="2.5"/><circle cx="515" cy="205" r="2.5"/><circle cx="525" cy="205" r="2.5"/><circle cx="535" cy="205" r="2.5"/><circle cx="555" cy="205" r="2.5"/><circle cx="565" cy="205" r="2.5"/><circle cx="575" cy="205" r="2.5"/><circle cx="585" cy="205" r="2.5"/><circle cx="595" cy="205" r="2.5"/><circle cx="625" cy="205" r="2.5"/><circle cx="635" cy="205" r="2.5"/><circle cx="645" cy="205" r="2.5"/><circle cx="655" cy="205" r="2.5"/><circle cx="665" cy="205" r="2.5"/><circle cx="695" cy="205" r="2.5"/><circle cx="705" cy="205" r="2.5"/><circle cx="715" cy="205" r="2.5"/><circle cx="125" cy="215" r="2.5"/><circle cx="205" cy="215" r="2.5"/><circle cx="215" cy="215" r="2.5"/><circle cx="225" cy="215" r="2.5"/><circle cx="235" cy="215" r="2.5"/><circle cx="245" cy="215" r="2.5"/><circle cx="255" cy="215" r="2.5"/><circle cx="265" cy="215" r="2.5"/><circle cx="275" cy="215" r="2.5"/><circle cx="285" cy="215" r="2.5"/><circle cx="415" cy="215" r="2.5"/><circle cx="425" cy="215" r="2.5"/><circle cx="435" cy="215" r="2.5"/><circle cx="445" cy="215" r="2.5"/><circle cx="455" cy="215" r="2.5"/><circle cx="465" cy="215" r="2.5"/><circle cx="475" cy="215" r="2.5"/><circle cx="485" cy="215" r="2.5"/><circle cx="495" cy="215" r="2.5"/><circle cx="505" cy="215" r="2.5"/><circle cx="515" cy="215" r="2.5"/><circle cx="525" cy="215" r="2.5"/><circle cx="535" cy="215" r="2.5"/><circle cx="555" cy="215" r="2.5"/><circle cx="565" cy="215" r="2.5"/><circle cx="575" cy="215" r="2.5"/><circle cx="585" cy="215" r="2.5"/><circle cx="595" cy="215" r="2.5"/><circle cx="645" cy="215" r="2.5"/><circle cx="685" cy="215" r="2.5"/><circle cx="695" cy="215" r="2.5"/><circle cx="705" cy="215" r="2.5"/><circle cx="715" cy="215" r="2.5"/><circle cx="725" cy="215" r="2.5"/><circle cx="205" cy="225" r="2.5"/><circle cx="215" cy="225" r="2.5"/><circle cx="225" cy="225" r="2.5"/><circle cx="235" cy="225" r="2.5"/><circle cx="245" cy="225" r="2.5"/><circle cx="255" cy="225" r="2.5"/><circle cx="265" cy="225" r="2.5"/><circle cx="275" cy="225" r="2.5"/><circle cx="285" cy="225" r="2.5"/><circle cx="295" cy="225" r="2.5"/><circle cx="305" cy="225" r="2.5"/><circle cx="415" cy="225" r="2.5"/><circle cx="425" cy="225" r="2.5"/><circle cx="435" cy="225" r="2.5"/><circle cx="445" cy="225" r="2.5"/><circle cx="455" cy="225" r="2.5"/><circle cx="465" cy="225" r="2.5"/><circle cx="475" cy="225" r="2.5"/><circle cx="485" cy="225" r="2.5"/><circle cx="495" cy="225" r="2.5"/><circle cx="505" cy="225" r="2.5"/><circle cx="515" cy="225" r="2.5"/><circle cx="525" cy="225" r="2.5"/><circle cx="535" cy="225" r="2.5"/><circle cx="575" cy="225" r="2.5"/><circle cx="665" cy="225" r="2.5"/><circle cx="675" cy="225" r="2.5"/><circle cx="685" cy="225" r="2.5"/><circle cx="695" cy="225" r="2.5"/><circle cx="705" cy="225" r="2.5"/><circle cx="715" cy="225" r="2.5"/><circle cx="745" cy="225" r="2.5"/><circle cx="215" cy="235" r="2.5"/><circle cx="235" cy="235" r="2.5"/><circle cx="245" cy="235" r="2.5"/><circle cx="255" cy="235" r="2.5"/><circle cx="265" cy="235" r="2.5"/><circle cx="275" cy="235" r="2.5"/><circle cx="285" cy="235" r="2.5"/><circle cx="295" cy="235" r="2.5"/><circle cx="305" cy="235" r="2.5"/><circle cx="315" cy="235" r="2.5"/><circle cx="405" cy="235" r="2.5"/><circle cx="415" cy="235" r="2.5"/><circle cx="425" cy="235" r="2.5"/><circle cx="435" cy="235" r="2.5"/><circle cx="445" cy="235" r="2.5"/><circle cx="455" cy="235" r="2.5"/><circle cx="465" cy="235" r="2.5"/><circle cx="475" cy="235" r="2.5"/><circle cx="485" cy="235" r="2.5"/><circle cx="495" cy="235" r="2.5"/><circle cx="505" cy="235" r="2.5"/><circle cx="515" cy="235" r="2.5"/><circle cx="525" cy="235" r="2.5"/><circle cx="535" cy="235" r="2.5"/><circle cx="545" cy="235" r="2.5"/><circle cx="655" cy="235" r="2.5"/><circle cx="665" cy="235" r="2.5"/><circle cx="675" cy="235" r="2.5"/><circle cx="685" cy="235" r="2.5"/><circle cx="695" cy="235" r="2.5"/><circle cx="705" cy="235" r="2.5"/><circle cx="715" cy="235" r="2.5"/><circle cx="725" cy="235" r="2.5"/><circle cx="745" cy="235" r="2.5"/><circle cx="245" cy="245" r="2.5"/><circle cx="255" cy="245" r="2.5"/><circle cx="265" cy="245" r="2.5"/><circle cx="275" cy="245" r="2.5"/><circle cx="285" cy="245" r="2.5"/><circle cx="295" cy="245" r="2.5"/><circle cx="305" cy="245" r="2.5"/><circle cx="315" cy="245" r="2.5"/><circle cx="325" cy="245" r="2.5"/><circle cx="415" cy="245" r="2.5"/><circle cx="425" cy="245" r="2.5"/><circle cx="435" cy="245" r="2.5"/><circle cx="445" cy="245" r="2.5"/><circle cx="455" cy="245" r="2.5"/><circle cx="465" cy="245" r="2.5"/><circle cx="475" cy="245" r="2.5"/><circle cx="485" cy="245" r="2.5"/><circle cx="495" cy="245" r="2.5"/><circle cx="505" cy="245" r="2.5"/><circle cx="515" cy="245" r="2.5"/><circle cx="525" cy="245" r="2.5"/><circle cx="535" cy="245" r="2.5"/><circle cx="665" cy="245" r="2.5"/><circle cx="675" cy="245" r="2.5"/><circle cx="685" cy="245" r="2.5"/><circle cx="695" cy="245" r="2.5"/><circle cx="705" cy="245" r="2.5"/><circle cx="715" cy="245" r="2.5"/><circle cx="725" cy="245" r="2.5"/><circle cx="735" cy="245" r="2.5"/><circle cx="745" cy="245" r="2.5"/><circle cx="755" cy="245" r="2.5"/><circle cx="245" cy="255" r="2.5"/><circle cx="255" cy="255" r="2.5"/><circle cx="265" cy="255" r="2.5"/><circle cx="275" cy="255" r="2.5"/><circle cx="285" cy="255" r="2.5"/><circle cx="295" cy="255" r="2.5"/><circle cx="305" cy="255" r="2.5"/><circle cx="315" cy="255" r="2.5"/><circle cx="325" cy="255" r="2.5"/><circle cx="415" cy="255" r="2.5"/><circle cx="425" cy="255" r="2.5"/><circle cx="435" cy="255" r="2.5"/><circle cx="445" cy="255" r="2.5"/><circle cx="455" cy="255" r="2.5"/><circle cx="465" cy="255" r="2.5"/><circle cx="475" cy="255" r="2.5"/><circle cx="485" cy="255" r="2.5"/><circle cx="495" cy="255" r="2.5"/><circle cx="505" cy="255" r="2.5"/><circle cx="515" cy="255" r="2.5"/><circle cx="525" cy="255" r="2.5"/><circle cx="535" cy="255" r="2.5"/><circle cx="685" cy="255" r="2.5"/><circle cx="705" cy="255" r="2.5"/><circle cx="715" cy="255" r="2.5"/><circle cx="725" cy="255" r="2.5"/><circle cx="735" cy="255" r="2.5"/><circle cx="745" cy="255" r="2.5"/><circle cx="235" cy="265" r="2.5"/><circle cx="245" cy="265" r="2.5"/><circle cx="255" cy="265" r="2.5"/><circle cx="265" cy="265" r="2.5"/><circle cx="275" cy="265" r="2.5"/><circle cx="285" cy="265" r="2.5"/><circle cx="295" cy="265" r="2.5"/><circle cx="305" cy="265" r="2.5"/><circle cx="315" cy="265" r="2.5"/><circle cx="325" cy="265" r="2.5"/><circle cx="415" cy="265" r="2.5"/><circle cx="425" cy="265" r="2.5"/><circle cx="435" cy="265" r="2.5"/><circle cx="445" cy="265" r="2.5"/><circle cx="455" cy="265" r="2.5"/><circle cx="465" cy="265" r="2.5"/><circle cx="475" cy="265" r="2.5"/><circle cx="485" cy="265" r="2.5"/><circle cx="495" cy="265" r="2.5"/><circle cx="505" cy="265" r="2.5"/><circle cx="515" cy="265" r="2.5"/><circle cx="525" cy="265" r="2.5"/><circle cx="535" cy="265" r="2.5"/><circle cx="715" cy="265" r="2.5"/><circle cx="725" cy="265" r="2.5"/><circle cx="735" cy="265" r="2.5"/><circle cx="745" cy="265" r="2.5"/><circle cx="245" cy="275" r="2.5"/><circle cx="255" cy="275" r="2.5"/><circle cx="265" cy="275" r="2.5"/><circle cx="275" cy="275" r="2.5"/><circle cx="285" cy="275" r="2.5"/><circle cx="295" cy="275" r="2.5"/><circle cx="305" cy="275" r="2.5"/><circle cx="315" cy="275" r="2.5"/><circle cx="325" cy="275" r="2.5"/><circle cx="415" cy="275" r="2.5"/><circle cx="425" cy="275" r="2.5"/><circle cx="435" cy="275" r="2.5"/><circle cx="445" cy="275" r="2.5"/><circle cx="455" cy="275" r="2.5"/><circle cx="465" cy="275" r="2.5"/><circle cx="475" cy="275" r="2.5"/><circle cx="485" cy="275" r="2.5"/><circle cx="495" cy="275" r="2.5"/><circle cx="505" cy="275" r="2.5"/><circle cx="515" cy="275" r="2.5"/><circle cx="525" cy="275" r="2.5"/><circle cx="535" cy="275" r="2.5"/><circle cx="725" cy="275" r="2.5"/><circle cx="235" cy="285" r="2.5"/><circle cx="245" cy="285" r="2.5"/><circle cx="255" cy="285" r="2.5"/><circle cx="265" cy="285" r="2.5"/><circle cx="275" cy="285" r="2.5"/><circle cx="285" cy="285" r="2.5"/><circle cx="295" cy="285" r="2.5"/><circle cx="305" cy="285" r="2.5"/><circle cx="315" cy="285" r="2.5"/><circle cx="325" cy="285" r="2.5"/><circle cx="335" cy="285" r="2.5"/><circle cx="425" cy="285" r="2.5"/><circle cx="435" cy="285" r="2.5"/><circle cx="445" cy="285" r="2.5"/><circle cx="455" cy="285" r="2.5"/><circle cx="465" cy="285" r="2.5"/><circle cx="475" cy="285" r="2.5"/><circle cx="485" cy="285" r="2.5"/><circle cx="495" cy="285" r="2.5"/><circle cx="505" cy="285" r="2.5"/><circle cx="515" cy="285" r="2.5"/><circle cx="525" cy="285" r="2.5"/><circle cx="765" cy="285" r="2.5"/><circle cx="245" cy="295" r="2.5"/><circle cx="255" cy="295" r="2.5"/><circle cx="265" cy="295" r="2.5"/><circle cx="275" cy="295" r="2.5"/><circle cx="285" cy="295" r="2.5"/><circle cx="295" cy="295" r="2.5"/><circle cx="305" cy="295" r="2.5"/><circle cx="315" cy="295" r="2.5"/><circle cx="325" cy="295" r="2.5"/><circle cx="425" cy="295" r="2.5"/><circle cx="435" cy="295" r="2.5"/><circle cx="445" cy="295" r="2.5"/><circle cx="455" cy="295" r="2.5"/><circle cx="465" cy="295" r="2.5"/><circle cx="475" cy="295" r="2.5"/><circle cx="485" cy="295" r="2.5"/><circle cx="495" cy="295" r="2.5"/><circle cx="505" cy="295" r="2.5"/><circle cx="515" cy="295" r="2.5"/><circle cx="735" cy="295" r="2.5"/><circle cx="745" cy="295" r="2.5"/><circle cx="755" cy="295" r="2.5"/><circle cx="765" cy="295" r="2.5"/><circle cx="775" cy="295" r="2.5"/><circle cx="785" cy="295" r="2.5"/><circle cx="795" cy="295" r="2.5"/><circle cx="245" cy="305" r="2.5"/><circle cx="255" cy="305" r="2.5"/><circle cx="265" cy="305" r="2.5"/><circle cx="275" cy="305" r="2.5"/><circle cx="285" cy="305" r="2.5"/><circle cx="295" cy="305" r="2.5"/><circle cx="305" cy="305" r="2.5"/><circle cx="315" cy="305" r="2.5"/><circle cx="325" cy="305" r="2.5"/><circle cx="335" cy="305" r="2.5"/><circle cx="415" cy="305" r="2.5"/><circle cx="425" cy="305" r="2.5"/><circle cx="435" cy="305" r="2.5"/><circle cx="445" cy="305" r="2.5"/><circle cx="455" cy="305" r="2.5"/><circle cx="465" cy="305" r="2.5"/><circle cx="475" cy="305" r="2.5"/><circle cx="485" cy="305" r="2.5"/><circle cx="495" cy="305" r="2.5"/><circle cx="505" cy="305" r="2.5"/><circle cx="515" cy="305" r="2.5"/><circle cx="725" cy="305" r="2.5"/><circle cx="735" cy="305" r="2.5"/><circle cx="745" cy="305" r="2.5"/><circle cx="755" cy="305" r="2.5"/><circle cx="765" cy="305" r="2.5"/><circle cx="775" cy="305" r="2.5"/><circle cx="785" cy="305" r="2.5"/><circle cx="795" cy="305" r="2.5"/><circle cx="805" cy="305" r="2.5"/><circle cx="245" cy="315" r="2.5"/><circle cx="255" cy="315" r="2.5"/><circle cx="265" cy="315" r="2.5"/><circle cx="275" cy="315" r="2.5"/><circle cx="285" cy="315" r="2.5"/><circle cx="295" cy="315" r="2.5"/><circle cx="305" cy="315" r="2.5"/><circle cx="315" cy="315" r="2.5"/><circle cx="325" cy="315" r="2.5"/><circle cx="425" cy="315" r="2.5"/><circle cx="435" cy="315" r="2.5"/><circle cx="445" cy="315" r="2.5"/><circle cx="455" cy="315" r="2.5"/><circle cx="465" cy="315" r="2.5"/><circle cx="475" cy="315" r="2.5"/><circle cx="485" cy="315" r="2.5"/><circle cx="495" cy="315" r="2.5"/><circle cx="505" cy="315" r="2.5"/><circle cx="725" cy="315" r="2.5"/><circle cx="735" cy="315" r="2.5"/><circle cx="745" cy="315" r="2.5"/><circle cx="755" cy="315" r="2.5"/><circle cx="765" cy="315" r="2.5"/><circle cx="775" cy="315" r="2.5"/><circle cx="785" cy="315" r="2.5"/><circle cx="795" cy="315" r="2.5"/><circle cx="805" cy="315" r="2.5"/><circle cx="245" cy="325" r="2.5"/><circle cx="255" cy="325" r="2.5"/><circle cx="265" cy="325" r="2.5"/><circle cx="275" cy="325" r="2.5"/><circle cx="285" cy="325" r="2.5"/><circle cx="295" cy="325" r="2.5"/><circle cx="305" cy="325" r="2.5"/><circle cx="315" cy="325" r="2.5"/><circle cx="325" cy="325" r="2.5"/><circle cx="425" cy="325" r="2.5"/><circle cx="435" cy="325" r="2.5"/><circle cx="445" cy="325" r="2.5"/><circle cx="455" cy="325" r="2.5"/><circle cx="465" cy="325" r="2.5"/><circle cx="475" cy="325" r="2.5"/><circle cx="485" cy="325" r="2.5"/><circle cx="495" cy="325" r="2.5"/><circle cx="715" cy="325" r="2.5"/><circle cx="725" cy="325" r="2.5"/><circle cx="735" cy="325" r="2.5"/><circle cx="745" cy="325" r="2.5"/><circle cx="755" cy="325" r="2.5"/><circle cx="765" cy="325" r="2.5"/><circle cx="775" cy="325" r="2.5"/><circle cx="785" cy="325" r="2.5"/><circle cx="795" cy="325" r="2.5"/><circle cx="805" cy="325" r="2.5"/><circle cx="815" cy="325" r="2.5"/><circle cx="255" cy="335" r="2.5"/><circle cx="265" cy="335" r="2.5"/><circle cx="275" cy="335" r="2.5"/><circle cx="285" cy="335" r="2.5"/><circle cx="295" cy="335" r="2.5"/><circle cx="305" cy="335" r="2.5"/><circle cx="315" cy="335" r="2.5"/><circle cx="435" cy="335" r="2.5"/><circle cx="445" cy="335" r="2.5"/><circle cx="455" cy="335" r="2.5"/><circle cx="465" cy="335" r="2.5"/><circle cx="475" cy="335" r="2.5"/><circle cx="725" cy="335" r="2.5"/><circle cx="735" cy="335" r="2.5"/><circle cx="745" cy="335" r="2.5"/><circle cx="755" cy="335" r="2.5"/><circle cx="765" cy="335" r="2.5"/><circle cx="775" cy="335" r="2.5"/><circle cx="785" cy="335" r="2.5"/><circle cx="795" cy="335" r="2.5"/><circle cx="805" cy="335" r="2.5"/><circle cx="265" cy="345" r="2.5"/><circle cx="275" cy="345" r="2.5"/><circle cx="285" cy="345" r="2.5"/><circle cx="295" cy="345" r="2.5"/><circle cx="305" cy="345" r="2.5"/><circle cx="315" cy="345" r="2.5"/><circle cx="325" cy="345" r="2.5"/><circle cx="455" cy="345" r="2.5"/><circle cx="725" cy="345" r="2.5"/><circle cx="735" cy="345" r="2.5"/><circle cx="745" cy="345" r="2.5"/><circle cx="755" cy="345" r="2.5"/><circle cx="765" cy="345" r="2.5"/><circle cx="775" cy="345" r="2.5"/><circle cx="785" cy="345" r="2.5"/><circle cx="795" cy="345" r="2.5"/><circle cx="805" cy="345" r="2.5"/><circle cx="285" cy="355" r="2.5"/><circle cx="295" cy="355" r="2.5"/><circle cx="305" cy="355" r="2.5"/><circle cx="315" cy="355" r="2.5"/><circle cx="735" cy="355" r="2.5"/><circle cx="745" cy="355" r="2.5"/><circle cx="755" cy="355" r="2.5"/><circle cx="765" cy="355" r="2.5"/><circle cx="775" cy="355" r="2.5"/><circle cx="785" cy="355" r="2.5"/><circle cx="795" cy="355" r="2.5"/><circle cx="295" cy="365" r="2.5"/><circle cx="305" cy="365" r="2.5"/><circle cx="315" cy="365" r="2.5"/><circle cx="765" cy="365" r="2.5"/><circle cx="785" cy="365" r="2.5"/><circle cx="305" cy="375" r="2.5"/></svg>